<svg aria-hidden="true" style="position: absolute; width: 0; height: 0; overflow: hidden;" version="1.1"
    xmlns="http://www.w3.org/2000/svg"
    xmlns:xlink="http://www.w3.org/1999/xlink">
    <defs>
        <symbol id="arrow-left" viewBox="0 0 32 32">
            <path stroke-linejoin="round" stroke-linecap="round" stroke-miterlimit="4" stroke-width="2.6666" d="M25.333 16h-18.667M16 25.333l-9.334-9.333 9.333-9.333"></path>
        </symbol>
        <symbol id="arrow-right" viewBox="0 0 32 32">
            <path stroke-linejoin="round" stroke-linecap="round" stroke-miterlimit="4" stroke-width="2.6666" d="M6.667 16h18.667M16 25.333l9.334-9.333-9.333-9.333"></path>
        </symbol>
        <symbol id="icon-cross" viewBox="0 0 32 32">
            <path d="M26.667 7.303l-1.97-1.97-7.808 7.808-7.808-7.808-1.97 1.97 7.808 7.808-7.808 7.808 1.97 1.97 7.808-7.808 7.808 7.808 1.97-1.97-7.808-7.808 7.808-7.808z"></path>
        </symbol>
        <symbol id="like" viewBox="0 0 32 32">
            <path fill="#ff6b08" style="fill: var(--color1, #ff6b08)" d="M16 30.144l-2.24-2.218c-8.32-7.287-13.76-12.198-13.76-18.218 0-4.911 3.84-8.713 8.8-8.713 2.72 0 5.44 1.267 7.2 3.327 1.76-2.059 4.48-3.327 7.2-3.327 4.96 0 8.8 3.802 8.8 8.713 0 6.020-5.44 10.931-13.76 18.218l-2.24 2.218z"></path>
        </symbol>
        <symbol id="logo" viewBox="0 0 32 32">
            <path stroke-linejoin="round" stroke-linecap="round" stroke-miterlimit="4" stroke-width="2.6667" d="M26.427 2.667h-20.853c-1.605 0-2.907 1.301-2.907 2.907v20.853c0 1.605 1.301 2.907 2.907 2.907h20.853c1.605 0 2.907-1.301 2.907-2.907v-20.853c0-1.605-1.301-2.907-2.907-2.907zM9.333 2.667v26.667M22.667 2.667v26.667M2.667 16h26.667M2.667 9.333h6.667M2.667 22.667h6.667M22.667 22.667h6.667M22.667 9.333h6.667"></path>
        </symbol>
        <symbol id="search" viewBox="0 0 32 32">
            <path fill="none" stroke="#fff" style="stroke: var(--color3, #fff)" stroke-linejoin="round" stroke-linecap="round" stroke-miterlimit="4" stroke-width="2.6667" d="M14.667 25.333c5.891 0 10.667-4.776 10.667-10.667s-4.776-10.667-10.667-10.667c-5.891 0-10.667 4.776-10.667 10.667s4.776 10.667 10.667 10.667zM28 28.001l-5.8-5.8"></path>
        </symbol>
        <symbol id="icon-github" viewBox="0 0 32 32">
            <path d="M16 0.395c-8.836 0-16 7.163-16 16 0 7.069 4.585 13.067 10.942 15.182 0.8 0.148 1.094-0.347 1.094-0.77 0-0.381-0.015-1.642-0.022-2.979-4.452 0.968-5.391-1.888-5.391-1.888-0.728-1.849-1.776-2.341-1.776-2.341-1.452-0.993 0.11-0.973 0.11-0.973 1.606 0.113 2.452 1.649 2.452 1.649 1.427 2.446 3.743 1.739 4.656 1.33 0.143-1.034 0.558-1.74 1.016-2.14-3.554-0.404-7.29-1.777-7.29-7.907 0-1.747 0.625-3.174 1.649-4.295-0.166-0.403-0.714-2.030 0.155-4.234 0 0 1.344-0.43 4.401 1.64 1.276-0.355 2.645-0.532 4.005-0.539 1.359 0.006 2.729 0.184 4.008 0.539 3.054-2.070 4.395-1.64 4.395-1.64 0.871 2.204 0.323 3.831 0.157 4.234 1.026 1.12 1.647 2.548 1.647 4.295 0 6.145-3.743 7.498-7.306 7.895 0.574 0.497 1.085 1.47 1.085 2.963 0 2.141-0.019 3.864-0.019 4.391 0 0.426 0.288 0.925 1.099 0.768 6.354-2.118 10.933-8.113 10.933-15.18 0-8.837-7.164-16-16-16z"></path>
        </symbol>
        <symbol id="icon-code-busters" viewBox="0 0 32 32">
            <path d="M19.147 0.395c-0.789 0.277-1.493 0.72-1.952 1.227-0.155 0.165-0.315 0.299-0.363 0.299-0.133 0-0.752 0.293-1.013 0.48-0.128 0.096-0.336 0.304-0.453 0.475-0.384 0.523-0.549 0.667-0.971 0.827-0.544 0.213-1.573 0.731-2.096 1.056-0.757 0.475-1.424 1.008-2.171 1.733l-0.725 0.709h-4.544c-3.92 0-4.544 0.011-4.571 0.075-0.016 0.043 0.341 1.413 0.789 3.040l0.821 2.96 1.52 1.045c0.832 0.576 1.515 1.061 1.515 1.083-0.005 0.021-0.048 0.128-0.101 0.235-0.091 0.171-0.091 0.219-0.032 0.363 0.128 0.309 0.56 0.405 1.099 0.24 0.331-0.101 0.448-0.101 0.448 0 0 0.043-0.091 0.101-0.213 0.133-0.331 0.091-0.677 0.251-0.795 0.368-0.155 0.155-0.144 0.405 0.027 0.576 0.133 0.128 0.155 0.133 0.544 0.101 0.219-0.021 0.427-0.043 0.459-0.048 0.027-0.005 0.117 0.299 0.203 0.683 0.523 2.464 1.707 4.656 3.445 6.4 0.96 0.971 2.080 1.787 3.248 2.379l0.624 0.32 0.256 0.464c0.139 0.256 0.256 0.48 0.256 0.496 0 0.021-0.091 0.053-0.197 0.075-0.565 0.107-1.179 0.603-1.435 1.173l-0.139 0.299-0.437-0.421c-0.491-0.469-0.619-0.533-0.763-0.373-0.075 0.085-0.096 0.192-0.096 0.491 0.005 0.32 0.032 0.437 0.181 0.752 0.32 0.651 1.184 1.387 1.835 1.557 1.088 0.277 2.507-0.299 3.632-1.483 0.491-0.517 0.795-1.035 0.96-1.648l0.096-0.347 1.045-0.005c1.168 0 1.893-0.085 2.923-0.336 2.277-0.56 4.256-1.68 5.941-3.365 1.083-1.083 1.835-2.144 2.491-3.499 2.304-4.8 1.323-10.592-2.437-14.373-1.813-1.824-4.053-3.035-6.453-3.499-0.912-0.176-0.859-0.16-0.821-0.256 0.053-0.133 0.208-0.187 0.635-0.235 0.741-0.085 1.141-0.416 1.147-0.949 0-0.181-0.027-0.245-0.144-0.336-0.181-0.144-0.395-0.123-0.704 0.075-0.4 0.256-0.48 0.208-1.083-0.677-0.325-0.48-0.752-0.581-1.429-0.336zM20.139 0.603c0.064 0.037 0.277 0.261 0.469 0.501 0.197 0.245 0.453 0.496 0.581 0.576 0.245 0.139 0.395 0.181 0.229 0.064-0.080-0.059-0.048-0.080 0.277-0.192 0.203-0.069 0.411-0.112 0.459-0.096 0.192 0.075 0.176 0.352-0.043 0.608-0.123 0.149-0.576 0.336-0.811 0.336-0.373 0-0.731 0.251-0.8 0.549l-0.037 0.171-0.149-0.187c-0.139-0.165-0.128-0.133 0.069 0.256l0.224 0.437 0.037 0.864c0.053 1.173 0.133 1.413 0.693 2.155 0.507 0.661 0.656 0.944 0.747 1.397 0.064 0.341 0.048 1.483-0.027 1.605-0.048 0.075-0.187 0.005-0.475-0.251-0.208-0.192-0.213-0.192-0.107-0.037 0.165 0.235 0.587 0.619 0.939 0.853l0.304 0.203-0.549 0.411c-1.605 1.205-10.427 7.781-10.523 7.84s-0.24 0.005-1.237-0.421c-0.624-0.272-1.333-0.56-1.573-0.645-1.008-0.347-1.989-0.512-2.757-0.464-0.373 0.021-0.485 0.016-0.539-0.048-0.101-0.123 0.032-0.229 0.731-0.56 0.357-0.165 0.667-0.331 0.688-0.368 0.027-0.048 0.021-0.059-0.016-0.032-0.032 0.021-0.187-0.005-0.336-0.053-0.245-0.080-0.336-0.085-0.736-0.032-0.491 0.069-0.736 0.037-0.827-0.112-0.080-0.128 0.112-0.309 0.603-0.565 0.752-0.389 1.051-0.485 1.493-0.485 0.224 0 0.496 0.021 0.603 0.048 0.277 0.064 0.208-0.016-0.107-0.128-0.416-0.144-0.896-0.16-1.269-0.037-0.304 0.096-0.341 0.096-0.56 0.016-0.187-0.069-0.24-0.117-0.251-0.229-0.016-0.123 0.016-0.165 0.213-0.267 0.197-0.107 0.304-0.123 0.763-0.123 0.459 0.005 0.603 0.032 1.035 0.176 0.277 0.096 0.709 0.288 0.96 0.421 1.131 0.608 1.765 0.869 2.832 1.168 0.789 0.219 0.757 0.176 0.405 0.464-0.171 0.139-0.293 0.251-0.272 0.251s0.208-0.112 0.421-0.251c0.496-0.331 1.2-1.008 1.835-1.776 0.283-0.336 0.672-0.795 0.864-1.013s0.437-0.533 0.539-0.693c0.779-1.195 2.027-1.936 3.621-2.155l0.56-0.075-0.389-0.005c-0.773-0.011-1.456 0.144-2.256 0.507-0.517 0.24-0.773 0.288-0.891 0.171s-0.139 0.011-0.021 0.171l0.117 0.155-0.309 0.293c-0.165 0.16-0.373 0.389-0.464 0.507-0.085 0.117-0.171 0.219-0.187 0.219s-0.080-0.080-0.149-0.176c-0.064-0.101-0.437-0.501-0.827-0.896-0.965-0.981-1.232-1.467-1.301-2.331-0.059-0.768 0.187-1.349 1.067-2.581l0.491-0.683h0.821c1.035 0 1.019 0.011 1.019-0.651 0-0.459 0-0.469 0.128-0.469 0.123 0 0.128 0.016 0.149 0.469 0.011 0.299 0.043 0.507 0.091 0.56 0.064 0.080 0.229 0.091 1.387 0.091 1.104 0 1.333-0.011 1.435-0.085 0.112-0.080 0.117-0.112 0.117-0.923 0-0.763-0.011-0.853-0.101-0.933-0.096-0.085-0.192-0.091-1.429-0.032-0.741 0.037-1.355 0.085-1.392 0.117s-0.080 0.149-0.096 0.261c-0.032 0.176-0.053 0.208-0.16 0.208s-0.128-0.027-0.128-0.176c0-0.267-0.075-0.304-0.597-0.304h-0.464l0.144-0.416c0.139-0.395 0.155-0.416 0.373-0.491 0.261-0.091 0.293-0.16 0.059-0.16h-0.16l0.107-0.149c0.411-0.576 1.205-1.003 2.112-1.125l0.373-0.053-0.389 0.021c-0.213 0.011-0.373 0-0.357-0.027 0.069-0.117 0.736-0.565 1.12-0.763 0.843-0.427 1.467-0.565 1.765-0.395zM19.093 5.013v0.747h-2.507v-0.693c0-0.683 0-0.693 0.123-0.699 0.064-0.005 0.443-0.027 0.837-0.043 0.395-0.021 0.907-0.043 1.136-0.048l0.411-0.011v0.747zM15.787 5.093v0.667h-1.387l0.149-0.309c0.085-0.165 0.197-0.437 0.245-0.597 0.053-0.16 0.101-0.325 0.112-0.363 0.016-0.043 0.155-0.064 0.453-0.064h0.427v0.667zM6.635 8.187c1.408 0.485 2.352 2.032 1.968 3.227-0.117 0.363-0.464 0.747-0.827 0.912-0.395 0.176-1.205 0.176-1.648 0.005-0.885-0.347-1.627-1.088-1.925-1.92-0.16-0.443-0.155-1.072 0.005-1.435 0.219-0.491 0.683-0.832 1.285-0.939 0.245-0.048 0.768 0.027 1.141 0.149zM25.824 13.68c0.875 1.264 1.541 2.907 1.627 4 0.027 0.347 0.011 0.416-0.192 0.955-0.443 1.179-1.088 2.176-1.995 3.099-0.32 0.32-0.619 0.656-0.661 0.747-0.389 0.747-1.051 1.488-1.749 1.952-1.067 0.709-2.16 1.077-3.76 1.275-1.019 0.123-1.755 0.448-1.989 0.88-0.037 0.075 0 0.059 0.128-0.053 0.192-0.165 0.512-0.331 0.555-0.283 0.016 0.016 0.053 0.224 0.080 0.459 0.096 0.752-0.064 1.632-0.432 2.4-0.368 0.763-1.221 1.563-2.155 2.011-0.869 0.416-1.579 0.464-2.229 0.144-0.475-0.235-1.083-0.832-1.291-1.259-0.16-0.331-0.251-0.939-0.144-0.939 0.032 0 0.304 0.261 0.603 0.581l0.549 0.581 0.096-0.379c0.117-0.453 0.384-0.88 0.693-1.104 0.208-0.149 0.8-0.373 0.997-0.373 0.048 0 0.219 0.133 0.379 0.299 0.16 0.16 0.389 0.373 0.507 0.464l0.213 0.165-0.192-0.213c-0.661-0.72-1.275-1.803-1.653-2.88-0.4-1.168-0.416-2.101-0.048-2.811 0.272-0.517 1.2-1.477 2.059-2.123 0.368-0.277 1.173-0.741 1.285-0.741 0.027 0 0.075 0.171 0.112 0.373 0.064 0.379 0.427 1.573 0.464 1.536 0.016-0.011-0.011-0.128-0.048-0.261-0.128-0.427-0.24-1.227-0.277-1.968-0.016-0.395-0.037-0.773-0.043-0.837-0.005-0.091 0.768-0.693 4.075-3.157 2.24-1.675 4.091-3.024 4.112-3.003 0.016 0.021 0.165 0.229 0.325 0.464zM12.923 13.819c0.384 0.272 0.709 0.496 0.715 0.496 0.005 0.005-0.192 0.267-0.448 0.581l-0.459 0.571h-1.024c-1.019 0-1.024 0-1.147-0.133l-0.123-0.133h0.619l-0.379-0.267c-0.299-0.208-0.427-0.267-0.587-0.267-0.139 0-0.24-0.037-0.304-0.107-0.096-0.101-0.091-0.107 0.027-0.107 0.101 0 0.107-0.011 0.053-0.080-0.037-0.043-0.144-0.080-0.235-0.080-0.192 0-0.512-0.208-0.325-0.213 0.187 0 0-0.117-0.277-0.165-0.373-0.075-0.517-0.027-0.597 0.192-0.075 0.213-0.139 0.224-0.485 0.080l-0.24-0.101h0.315c0.293-0.005 0.309-0.011 0.213-0.085-0.069-0.053-0.235-0.075-0.501-0.080-0.293 0-0.379 0.016-0.32 0.059 0.085 0.059 0.107 0.064-0.363-0.059-0.155-0.043-0.501-0.048-1.056-0.021-0.699 0.032-0.805 0.048-0.725 0.107 0.048 0.037 0.133 0.075 0.192 0.075 0.085 0 0.080 0.016-0.037 0.107-0.101 0.080-0.219 0.107-0.475 0.107-0.309 0.005-0.325 0.011-0.235 0.080 0.059 0.043 0.208 0.080 0.336 0.080 0.203 0 0.229 0.011 0.229 0.128 0 0.133 0.219 0.405 0.331 0.405 0.037 0-0.032 0.059-0.155 0.133l-0.219 0.133-1.328-0.912c-0.725-0.501-1.344-0.933-1.371-0.96-0.032-0.027 1.899-0.048 4.811-0.048h4.864l0.709 0.485zM9.253 14.48c0.235 0.16 0.56 0.411 0.72 0.56l0.293 0.267-0.4-0.165c-0.411-0.165-1.227-0.619-1.227-0.677 0.005-0.123 0.075-0.277 0.128-0.277 0.032 0 0.251 0.133 0.485 0.293z"></path>
            <path d="M17.221 3.397c0.027 0.053 0.133 0.181 0.24 0.277 0.171 0.171 0.192 0.176 0.192 0.075 0-0.128-0.288-0.443-0.405-0.443-0.059 0-0.064 0.021-0.027 0.091z"></path>
            <path d="M16.4 7.312c-0.139 0.064-0.272 0.085-0.384 0.069-0.208-0.037-0.235 0.037-0.059 0.16 0.235 0.165 0.629 0.037 0.699-0.235 0.032-0.128 0.021-0.128-0.256 0.005z"></path>
            <path d="M15.835 9.045c-0.091 0.112-0.091 0.64 0.005 0.821 0.181 0.352 0.443 0.427 0.635 0.187 0.155-0.203 0.181-0.405 0.080-0.661-0.144-0.368-0.544-0.555-0.72-0.347z"></path>
            <path d="M16.997 4.576c-0.117 0.128-0.123 0.635-0.005 0.8 0.181 0.261 0.395 0.043 0.395-0.405 0-0.251 0.011-0.283 0.080-0.224 0.123 0.101 0.101-0.032-0.027-0.16-0.133-0.133-0.331-0.139-0.443-0.011z"></path>
            <path d="M15.019 4.597c-0.096 0.133-0.112 0.496-0.032 0.709 0.139 0.363 0.427 0.144 0.427-0.325 0-0.251 0.011-0.283 0.096-0.251 0.085 0.037 0.085 0.027 0.005-0.091-0.123-0.187-0.384-0.208-0.496-0.043z"></path>
            <path d="M5.477 8.373c-0.261 0.069-0.576 0.229-0.683 0.352-0.101 0.117-0.315 0.523-0.315 0.603 0 0.027 0.096 0.011 0.208-0.032 0.331-0.128 0.624-0.059 1.131 0.277 0.693 0.459 1.253 0.512 1.541 0.144 0.144-0.181 0.112-0.475-0.080-0.768-0.272-0.411-1.227-0.72-1.803-0.576z"></path>
            <path d="M3.627 13.627c0.048 0.059 0.176 0.080 0.475 0.080 0.368-0.005 0.395-0.011 0.304-0.080-0.069-0.053-0.235-0.080-0.475-0.080-0.325 0-0.363 0.011-0.304 0.080z"></path>
            <path d="M4.725 13.627c0.069 0.048 0.235 0.075 0.496 0.080 0.363 0 0.389-0.005 0.293-0.080-0.069-0.048-0.235-0.075-0.496-0.080-0.363 0-0.389 0.005-0.293 0.080z"></path>
            <path d="M5.813 13.627c0.048 0.059 0.176 0.080 0.475 0.080 0.368-0.005 0.395-0.011 0.304-0.080-0.069-0.053-0.235-0.080-0.475-0.080-0.325 0-0.363 0.011-0.304 0.080z"></path>
            <path d="M6.912 13.627c0.069 0.048 0.235 0.075 0.496 0.080 0.363 0 0.389-0.005 0.293-0.080-0.069-0.048-0.235-0.075-0.496-0.080-0.363 0-0.389 0.005-0.293 0.080z"></path>
            <path d="M8 13.627c0.048 0.059 0.176 0.080 0.475 0.080 0.368-0.005 0.395-0.011 0.304-0.080-0.069-0.053-0.235-0.080-0.475-0.080-0.325 0-0.363 0.011-0.304 0.080z"></path>
            <path d="M9.099 13.627c0.069 0.048 0.235 0.075 0.496 0.080 0.363 0 0.389-0.005 0.293-0.080-0.069-0.048-0.235-0.075-0.496-0.080-0.363 0-0.389 0.005-0.293 0.080z"></path>
            <path d="M10.187 13.627c0.048 0.059 0.176 0.080 0.475 0.080 0.368-0.005 0.395-0.011 0.304-0.080-0.069-0.053-0.235-0.080-0.475-0.080-0.325 0-0.363 0.011-0.304 0.080z"></path>
            <path d="M11.285 13.627c0.069 0.048 0.235 0.075 0.496 0.080 0.363 0 0.389-0.005 0.293-0.080-0.069-0.048-0.235-0.075-0.496-0.080-0.363 0-0.389 0.005-0.293 0.080z"></path>
            <path d="M4.181 14c0.069 0.053 0.229 0.080 0.48 0.080 0.347-0.005 0.368-0.011 0.277-0.080-0.069-0.053-0.229-0.080-0.48-0.080-0.347 0.005-0.368 0.011-0.277 0.080z"></path>
            <path d="M9.632 14c0.069 0.048 0.235 0.075 0.496 0.080 0.363 0 0.389-0.005 0.293-0.080-0.069-0.048-0.235-0.075-0.496-0.080-0.363 0-0.389 0.005-0.293 0.080z"></path>
            <path d="M10.741 14c0.069 0.053 0.229 0.080 0.48 0.080 0.347-0.005 0.368-0.011 0.277-0.080-0.069-0.053-0.229-0.080-0.48-0.080-0.347 0.005-0.368 0.011-0.277 0.080z"></path>
            <path d="M11.819 14c0.069 0.048 0.235 0.075 0.496 0.080 0.363 0 0.389-0.005 0.293-0.080-0.069-0.048-0.235-0.075-0.496-0.080-0.363 0-0.389 0.005-0.293 0.080z"></path>
            <path d="M10.165 14.373c0.069 0.048 0.235 0.075 0.496 0.080 0.363 0 0.389-0.005 0.293-0.080-0.069-0.048-0.235-0.075-0.496-0.080-0.363 0-0.389 0.005-0.293 0.080z"></path>
            <path d="M11.275 14.373c0.069 0.053 0.235 0.080 0.475 0.080 0.325 0 0.363-0.011 0.304-0.080-0.048-0.059-0.176-0.080-0.475-0.080-0.368 0.005-0.395 0.011-0.304 0.080z"></path>
            <path d="M12.352 14.373c0.069 0.048 0.235 0.075 0.496 0.080 0.363 0 0.389-0.005 0.293-0.080-0.069-0.048-0.235-0.075-0.496-0.080-0.363 0-0.389 0.005-0.293 0.080z"></path>
        </symbol>
    </defs>
</svg>
